Coordinates
version=1
nRows=11
nColumns=36
inDegrees=yes

Units are S.I. units (second, meters, Newtons, ...)
If the header above contains a line with 'inDegrees', this indicates whether rotational values are in degrees (yes) or radians (no).

endheader
time	pelvis_tilt	pelvis_list	pelvis_rotation	pelvis_tx	pelvis_ty	pelvis_tz	hip_flexion_r	hip_adduction_r	hip_rotation_r	knee_angle_r	knee_angle_r_beta	ankle_angle_r	subtalar_angle_r	mtp_angle_r	hip_flexion_l	hip_adduction_l	hip_rotation_l	knee_angle_l	knee_angle_l_beta	ankle_angle_l	subtalar_angle_l	mtp_angle_l	lumbar_extension	lumbar_bending	lumbar_rotation	arm_flex_r	arm_add_r	arm_rot_r	elbow_flex_r	pro_sup_r	arm_flex_l	arm_add_l	arm_rot_l	elbow_flex_l	pro_sup_l
      4.45000000	     -3.17135882	      3.27339103	      4.14454256	      0.57959177	      0.92834808	     -0.16957484	     -1.12825971	     -6.98191780	     -1.31075588	      2.42331534	      0.04229483	      5.26889522	    -10.56263168	     -7.49999987	     -2.17222397	     -0.48867234	     -3.22067703	      0.48187191	      0.00841025	      2.61734237	     -4.82528405	     -7.49999987	      1.87315285	     -2.42952828	     -2.73286103	     54.41848322	     12.96575841	     67.74082840	    119.16172525	     89.36912770	     42.19481243	      9.58046661	     69.14106539	    127.07362163	     73.31091795
      4.46666670	     -3.06773614	      3.31582987	      4.23883928	      0.58719332	      0.93342251	     -0.17012342	     -1.35469471	     -6.98945232	     -1.20215175	      2.35782881	      0.04115188	      4.97841278	    -10.75765385	     -7.49999987	     -2.27168432	     -0.45987155	     -3.05276173	      0.48212370	      0.00841465	      2.29674238	     -5.06585492	     -7.49999987	      1.76893806	     -2.53995915	     -2.65589512	     54.14749344	     12.58130004	     67.34912597	    119.32208871	     90.18570472	     42.20282610	      9.69679718	     69.01436484	    126.71247087	     73.56184652
      4.48333330	     -3.09559454	      3.31455698	      4.25932059	      0.58755932	      0.93124615	     -0.17010624	     -1.39860578	     -7.00842266	     -1.22225065	      2.35727792	      0.04114226	      4.94928607	    -10.74518914	     -7.49999987	     -2.26800456	     -0.43990006	     -3.09527593	      0.47835262	      0.00834883	      2.36165359	     -5.09776995	     -7.49999987	      1.85999866	     -2.48833290	     -2.69490567	     54.14268529	     12.55020590	     67.31423682	    119.33379844	     90.20859614	     42.26917093	      9.77102500	     68.99095578	    126.77739819	     73.57168808
      4.50000000	     -3.16576924	      3.29932095	      4.33399610	      0.58700774	      0.93073139	     -0.17001989	     -1.37945169	     -7.01886929	     -1.29174844	      2.27735129	      0.03974728	      4.93375113	    -10.81045089	     -7.49999987	     -2.18239659	     -0.43355484	     -2.85828874	      0.48117184	      0.00839803	      2.29869422	     -5.39138370	     -7.49999987	      2.04006893	     -2.44234283	     -2.59065662	     53.94160025	     12.39449641	     67.01938949	    119.39036059	     90.22487002	     42.21240537	      9.94780603	     68.92599434	    126.98722624	     73.60821317
      4.51666670	     -3.17527392	      3.29773892	      4.34658399	      0.58755621	      0.93089430	     -0.17013841	     -1.34688967	     -7.06561199	     -1.43083287	      2.30505345	      0.04023077	      5.07129136	    -10.65505199	     -7.49999987	     -2.20512590	     -0.42907856	     -2.97617763	      0.47636478	      0.00831413	      2.46485245	     -5.05865823	     -7.49999987	      2.17152151	     -2.43984776	     -2.62639946	     53.76507798	     12.58500126	     66.90531976	    119.35732964	     92.35615694	     42.03514379	     10.06630576	     68.92601153	    127.20842106	     74.61933794
      4.53333330	     -3.13061874	      3.29826220	      4.38368665	      0.58691801	      0.93533801	     -0.16977180	     -1.37403717	     -7.08146099	     -1.47840915	      2.30566137	      0.04024138	      5.03216257	    -10.62630806	     -7.49999987	     -2.27033884	     -0.44185185	     -3.03629389	      0.46952377	      0.00819474	      2.45027648	     -4.96021160	     -7.49999987	      2.15701218	     -2.39991781	     -2.65722514	     53.47084780	     12.65863767	     67.15829409	    119.26571431	     91.41253715	     41.72637168	      9.97214004	     69.27150187	    127.47088762	     74.27523553
      4.55000000	     -3.07509615	      3.29024664	      4.41902974	      0.58767231	      0.93292524	     -0.17023965	     -1.41694539	     -7.09155431	     -1.45514390	      2.29339499	      0.04002729	      4.98044624	    -10.74282951	     -7.49999987	     -2.35049733	     -0.45620874	     -3.04549185	      0.46694640	      0.00814975	      2.53378724	     -4.73350369	     -7.49999987	      2.14077277	     -2.37946384	     -2.67806411	     53.44985243	     12.66238826	     67.35655803	    119.32828155	     89.36113898	     41.58269917	      9.95362583	     69.63461627	    127.83819627	     73.47155545
      4.56666670	     -2.97813376	      3.27780012	      4.42465311	      0.58696434	      0.93263850	     -0.17006560	     -1.49397127	     -7.05941168	     -1.47636557	      2.33129321	      0.04068874	      5.01698138	    -10.71605007	     -7.49999987	     -2.48536101	     -0.48322081	     -2.97665065	      0.45678626	      0.00797242	      2.36893513	     -4.97922865	     -7.49999987	      2.05350089	     -2.37598870	     -2.68311935	     53.54728425	     12.78054903	     67.33044068	    118.94039814	     89.06924525	     41.56812322	      9.97481696	     69.77500537	    128.22568525	     73.40022795
      4.58333330	     -2.95285719	      3.25290343	      4.34159228	      0.58340277	      0.93011504	     -0.16678879	     -1.41660238	     -6.99833386	     -1.53258672	      2.41792874	      0.04220082	      5.30250855	    -10.33040117	     -7.49999987	     -2.48943225	     -0.53889780	     -3.03025785	      0.45936680	      0.00801746	      2.40739199	     -4.95538063	     -7.49999987	      2.00025398	     -2.43297445	     -2.49492417	     53.87710921	     12.92786611	     66.95718689	    118.59834547	     87.86598728	     41.75696284	     10.06989393	     69.71212145	    128.90868529	     73.01681612
      4.60000000	     -2.82099849	      3.26919161	      4.30139073	      0.58277333	      0.93012884	     -0.16661561	     -1.48369445	     -6.95532355	     -1.41584099	      2.38295606	      0.04159043	      5.28799624	    -10.64050606	     -7.49999987	     -2.56568098	     -0.57405905	     -3.06596457	      0.46392351	      0.00809699	      2.44841100	     -4.79956739	     -7.49999987	      1.82313019	     -2.51655206	     -2.46995636	     54.15263667	     13.06944161	     66.75653690	    118.15404641	     86.42741814	     42.03767720	      9.92483940	     69.21532271	    128.40874160	     72.36624679
      4.61666670	     -2.80591328	      3.28997297	      4.27042203	      0.58761884	      0.93075296	     -0.16976730	     -1.51513767	     -6.97233356	     -1.41358616	      2.39237451	      0.04175481	      5.28756570	    -10.64110070	     -7.49999987	     -2.52552916	     -0.59338757	     -3.06211677	      0.56407654	      0.00984499	      2.44758682	     -4.79951325	     -7.49999987	      1.81402621	     -2.51736360	     -2.47259895	     54.15119798	     13.07006125	     66.75452124	    118.15310571	     86.42971265	     42.04267393	      9.91753807	     69.21013995	    128.40196442	     72.36679470
